
<svg xmlns="http://www.w3.org/2000/svg" width="259.892" height="88" viewBox="0 0 259.892 88">
  <g id="logo-lms-login" transform="translate(-550 -895)">
    <g id="Grupo_81" data-name="Grupo 81" transform="translate(550 895)">
      <g id="Grupo_77" data-name="Grupo 77" transform="translate(0 0)">
        <path id="Trazado_51" data-name="Trazado 51" d="M118.428,30.386A30.454,30.454,0,1,1,87.9,0,30.447,30.447,0,0,1,118.428,30.386Z" transform="translate(-18.584 0)" fill="#e6007e"/>
        <path id="Trazado_52" data-name="Trazado 52" d="M62.728,87.9a11.727,11.727,0,0,1-16.584.041L16.881,58.811a11.727,11.727,0,0,1-.041-16.584l28.268-28.4a11.728,11.728,0,0,1,16.584-.041L90.948,42.917A11.727,11.727,0,0,1,90.989,59.5Z" transform="translate(-4.338 -3.352)" fill="#f39200"/>
        <path id="Trazado_53" data-name="Trazado 53" d="M12.509,38.91l28.268-28.4a11.7,11.7,0,0,1,9.064-3.425,30.458,30.458,0,1,0-38.1,47.525A11.735,11.735,0,0,1,12.509,38.91Z" transform="translate(0 -0.042)" fill="#009fe3"/>
        <path id="Trazado_54" data-name="Trazado 54" d="M54.175,10.4a11.7,11.7,0,0,0-9.064,3.425L16.85,42.22a11.734,11.734,0,0,0-.765,15.7A30.456,30.456,0,0,0,54.175,10.4Z" transform="translate(-4.341 -3.352)" fill="#026c44"/>
        <g id="Grupo_76" data-name="Grupo 76" transform="translate(49.868 7.053)">
          <path id="Trazado_55" data-name="Trazado 55" d="M73.827,79.65Z" transform="translate(-73.718 -32.788)" fill="#e20520"/>
          <path id="Trazado_56" data-name="Trazado 56" d="M81.163,13.8A11.7,11.7,0,0,0,73.7,10.42l-.027.027a30.445,30.445,0,0,1,.1,46.835,30.439,30.439,0,0,0,37.974.677,11.73,11.73,0,0,0-1.333-15.034Z" transform="translate(-73.67 -10.42)" fill="#e40520"/>
        </g>
        <path id="Trazado_57" data-name="Trazado 57" d="M68.457,10.46a30.58,30.58,0,0,0-5.5,6.018c0,.007-.007.007-.007.014-.149.217-.291.433-.44.65-.014.014-.02.034-.034.047-.135.21-.271.42-.406.636,0,.007-.007.007-.007.014a.3.3,0,0,0-.027.047c-.135.217-.264.44-.393.657a.024.024,0,0,1-.007.014c-.007.007-.007.014-.014.02a28.667,28.667,0,0,0-1.482,2.911c-.014.034-.027.061-.041.095h0c-.095.21-.183.42-.271.63-.027.061-.047.115-.074.176-.074.19-.149.372-.223.562-.02.047-.034.095-.054.135s-.02.054-.027.074c-.068.176-.129.359-.2.535-.027.074-.054.156-.081.237-.061.176-.122.352-.176.535a1.165,1.165,0,0,1-.047.142c-.007.034-.02.061-.027.095-.061.183-.115.372-.169.562-.02.074-.041.142-.061.217-.061.217-.122.433-.176.65a1.217,1.217,0,0,0-.034.129c-.068.264-.135.528-.19.8-.007.034-.014.061-.02.095-.054.23-.1.46-.149.69-.007.027-.014.061-.02.088-.014.061-.02.115-.034.176-.034.176-.068.352-.095.528l-.02.142c-.007.061-.02.115-.027.176-.027.162-.054.325-.074.487-.014.088-.027.183-.041.271,0,.02-.007.041-.007.068-.02.156-.041.318-.061.474L57.7,30.6c-.014.156-.034.318-.047.474a.655.655,0,0,0-.007.115c-.007.074-.014.156-.02.23-.014.162-.02.332-.034.494,0,.034-.007.061-.007.095-.007.081-.014.156-.014.237l-.02.548c0,.095-.007.19-.007.284-.007.278-.014.555-.007.833s.007.562.014.839a.583.583,0,0,0,.007.108c0,.054.007.108.007.156.007.19.014.379.027.562.007.061.007.129.014.19,0,.041.007.088.007.129.014.169.02.345.041.514.007.108.02.217.027.332.014.169.034.332.047.494,0,.02.007.047.007.068.007.088.02.169.027.257.02.169.041.332.068.5.014.1.027.21.047.311.027.169.054.345.081.514.014.095.034.19.047.291.034.19.068.379.108.569.007.034.014.068.02.108s.014.081.02.115c.054.257.108.521.169.778v.014q.091.406.2.812c.007.02.014.047.02.068.061.237.129.474.2.711.02.061.034.122.054.183.061.2.122.4.183.6.02.068.047.135.068.21.061.19.122.379.19.562.02.068.047.129.068.2,0,.007,0,.007.007.014.068.19.135.379.21.562.027.061.047.122.074.19h0c.074.2.156.393.237.589a.241.241,0,0,0,.027.061c.014.034.027.061.041.095.095.223.19.44.284.657.007.02.014.034.02.054a.024.024,0,0,0,.007.014,30.29,30.29,0,0,0,1.5,2.911c.007.007.007.014.014.02.135.223.264.447.406.67.007.014.02.034.027.047.135.217.271.426.413.643.007.014.02.027.027.041.149.217.291.44.447.65h0a.007.007,0,0,0,.007.007,30.449,30.449,0,0,0,5.537,6,30.437,30.437,0,0,0-.135-46.855Z" transform="translate(-18.589 -3.38)" fill="#302d80"/>
      </g>
      <g id="Grupo_78" data-name="Grupo 78" transform="translate(10.641 16.835)">
        <path id="Trazado_58" data-name="Trazado 58" d="M15.727,27.78a2.684,2.684,0,0,1,5.368,0l-.014,23.2,13.822.007a2.444,2.444,0,1,1,0,4.887l-16.483-.014a2.663,2.663,0,0,1-2.7-2.708Z" transform="translate(-15.72 -24.951)" fill="#fff"/>
        <path id="Trazado_59" data-name="Trazado 59" d="M50.764,27.911a2.688,2.688,0,0,1,2.708-2.7h.569a2.813,2.813,0,0,1,2.484,1.442l9.233,14.486,9.3-14.513A2.705,2.705,0,0,1,77.5,25.23h.569a2.692,2.692,0,0,1,2.7,2.708l-.02,25.553a2.654,2.654,0,0,1-2.708,2.66,2.7,2.7,0,0,1-2.66-2.66L75.4,35.174l-7.46,11.2a2.508,2.508,0,0,1-4.495,0L56.037,35.242l-.014,18.27a2.6,2.6,0,0,1-2.66,2.613A2.57,2.57,0,0,1,50.75,53.5Z" transform="translate(-27.038 -24.98)" fill="#fff"/>
        <path id="Trazado_60" data-name="Trazado 60" d="M100.179,52.42a2.528,2.528,0,0,1-1.049-2.051,2.6,2.6,0,0,1,4.1-2,13.207,13.207,0,0,0,8.543,3.148c3.317,0,5.409-1.564,5.409-3.831v-.088c0-2.18-1.218-3.357-6.884-4.671-6.5-1.577-10.16-3.493-10.154-9.118v-.088c.007-5.232,4.366-8.847,10.431-8.847a16.776,16.776,0,0,1,9.68,2.843,2.429,2.429,0,0,1,1.178,2.139,2.5,2.5,0,0,1-2.532,2.484,2.569,2.569,0,0,1-1.394-.393,12.677,12.677,0,0,0-7.02-2.315c-3.141,0-4.975,1.611-4.975,3.615v.088c0,2.356,1.394,3.4,7.284,4.8,6.451,1.577,9.761,3.885,9.761,8.949v.088c-.007,5.713-4.5,9.111-10.912,9.1A19.034,19.034,0,0,1,100.179,52.42Z" transform="translate(-42.669 -24.87)" fill="#fff"/>
      </g>
      <g id="Grupo_80" data-name="Grupo 80" transform="translate(118.134 7.108)">
        <g id="Grupo_79" data-name="Grupo 79">
          <path id="Trazado_61" data-name="Trazado 61" d="M176.32,13.537a1.78,1.78,0,0,1,3.561,0V28.923h9.165a1.618,1.618,0,1,1,0,3.236H178.114a1.763,1.763,0,0,1-1.794-1.794Z" transform="translate(-175.102 -10.91)" fill="#ffffff"/>
          <path id="Trazado_62" data-name="Trazado 62" d="M200.5,26.915v-.054a8.145,8.145,0,0,1,16.286-.054v.061a8.146,8.146,0,0,1-16.286.047Zm12.787,0v-.054a4.722,4.722,0,0,0-4.684-4.914,4.585,4.585,0,0,0-4.6,4.86v.061a4.706,4.706,0,0,0,4.657,4.887A4.6,4.6,0,0,0,213.287,26.915Z" transform="translate(-182.914 -13.208)" fill="#ffffff"/>
          <path id="Trazado_63" data-name="Trazado 63" d="M228.8,38.8a1.493,1.493,0,0,1-1.1-1.449,1.409,1.409,0,0,1,1.415-1.449,1.843,1.843,0,0,1,.636.115,3.992,3.992,0,0,0,1.218.2c1.042,0,1.591-.433,2.173-1.618l.115-.318-5.672-12.672a2.371,2.371,0,0,1-.2-.839,1.68,1.68,0,0,1,1.733-1.706,1.758,1.758,0,0,1,1.706,1.333l4.109,10.154L238.755,20.4a1.8,1.8,0,0,1,1.679-1.333,1.656,1.656,0,0,1,1.679,1.652,3.312,3.312,0,0,1-.142.839L236.386,34.95c-1.3,3.121-2.687,4.278-5.151,4.278A6.026,6.026,0,0,1,228.8,38.8Z" transform="translate(-191.602 -13.269)" fill="#ffffff"/>
          <path id="Trazado_64" data-name="Trazado 64" d="M251.91,30.111V30.05c0-3.3,2.572-4.914,6.3-4.914a12.683,12.683,0,0,1,4.109.636v-.379c0-2.166-1.327-3.324-3.791-3.324a9,9,0,0,0-3.385.609,1.88,1.88,0,0,1-.548.088,1.456,1.456,0,0,1-1.476-1.449,1.527,1.527,0,0,1,.954-1.388,13.14,13.14,0,0,1,4.921-.9,6.824,6.824,0,0,1,5.056,1.706,6.332,6.332,0,0,1,1.652,4.718v7.52A1.668,1.668,0,0,1,264,34.653a1.585,1.585,0,0,1-1.706-1.476V32.6a6.205,6.205,0,0,1-4.975,2.227C254.455,34.829,251.91,33.177,251.91,30.111Zm10.472-1.1V27.972a9.74,9.74,0,0,0-3.473-.609c-2.254,0-3.588.954-3.588,2.545v.061c0,1.476,1.3,2.315,2.978,2.315C260.615,32.284,262.382,30.95,262.382,29.014Z" transform="translate(-199.524 -13.256)" fill="#ffffff"/>
          <path id="Trazado_65" data-name="Trazado 65" d="M278.79,12.233a1.719,1.719,0,0,1,1.733-1.733,1.748,1.748,0,0,1,1.767,1.733V30.164a1.75,1.75,0,0,1-3.5,0Z" transform="translate(-208.209 -10.5)" fill="#ffffff"/>
          <path id="Trazado_66" data-name="Trazado 66" d="M290.788,28.316V20.274h-.575a1.5,1.5,0,0,1,0-3.005h.575V14.663a1.75,1.75,0,0,1,3.5,0v2.606h2.748a1.5,1.5,0,1,1,0,3.005h-2.748v7.493a1.668,1.668,0,0,0,1.882,1.909,8.07,8.07,0,0,0,.867-.088,1.478,1.478,0,0,1,1.476,1.449,1.506,1.506,0,0,1-.927,1.361,7.038,7.038,0,0,1-2.4.406C292.609,32.8,290.788,31.673,290.788,28.316Z" transform="translate(-211.414 -11.285)" fill="#ffffff"/>
          <path id="Trazado_67" data-name="Trazado 67" d="M308.112,38.8a1.493,1.493,0,0,1-1.1-1.449A1.409,1.409,0,0,1,308.43,35.9a1.844,1.844,0,0,1,.636.115,3.982,3.982,0,0,0,1.212.2c1.043,0,1.591-.433,2.173-1.618l.115-.318-5.673-12.672a2.371,2.371,0,0,1-.2-.839,1.68,1.68,0,0,1,1.733-1.706,1.752,1.752,0,0,1,1.706,1.333l4.109,10.154L318.055,20.4a1.8,1.8,0,0,1,1.679-1.333,1.66,1.66,0,0,1,1.679,1.652,3.019,3.019,0,0,1-.149.839L315.686,34.95c-1.306,3.121-2.694,4.278-5.151,4.278A6.014,6.014,0,0,1,308.112,38.8Z" transform="translate(-217.223 -13.269)" fill="#ffffff"/>
          <path id="Trazado_68" data-name="Trazado 68" d="M176.32,53.494a1.784,1.784,0,0,1,1.794-1.794h.379a1.87,1.87,0,0,1,1.645.954l6.133,9.605,6.16-9.632a1.794,1.794,0,0,1,1.618-.927h.379a1.788,1.788,0,0,1,1.794,1.794v16.95a1.766,1.766,0,0,1-1.794,1.767,1.8,1.8,0,0,1-1.767-1.767V58.3l-4.948,7.432a1.746,1.746,0,0,1-1.5.927,1.724,1.724,0,0,1-1.476-.927l-4.914-7.378V70.471a1.727,1.727,0,0,1-1.767,1.733,1.7,1.7,0,0,1-1.733-1.733Z" transform="translate(-175.102 -23.812)" fill="#ffffff"/>
          <path id="Trazado_69" data-name="Trazado 69" d="M211.31,70.007v-.054c0-3.3,2.572-4.914,6.309-4.914a12.713,12.713,0,0,1,4.109.636V65.3c0-2.173-1.333-3.324-3.791-3.324a9.024,9.024,0,0,0-3.385.609,1.846,1.846,0,0,1-.548.088,1.456,1.456,0,0,1-1.476-1.449,1.527,1.527,0,0,1,.954-1.388,13.082,13.082,0,0,1,4.914-.893,6.863,6.863,0,0,1,5.063,1.706,6.329,6.329,0,0,1,1.645,4.718v7.52a1.668,1.668,0,0,1-1.706,1.679,1.585,1.585,0,0,1-1.706-1.476v-.575a6.2,6.2,0,0,1-4.975,2.227C213.855,74.725,211.31,73.074,211.31,70.007Zm10.472-1.1V67.868a9.739,9.739,0,0,0-3.473-.609c-2.254,0-3.588.954-3.588,2.545v.054c0,1.476,1.306,2.315,2.978,2.315C220.022,72.18,221.782,70.847,221.782,68.911Z" transform="translate(-186.407 -26.151)" fill="#ffffff"/>
          <path id="Trazado_70" data-name="Trazado 70" d="M237.89,60.724a1.732,1.732,0,0,1,1.74-1.767,1.755,1.755,0,0,1,1.767,1.767v1.564c.806-1.909,2.315-3.357,3.845-3.357a1.624,1.624,0,0,1,1.733,1.733,1.647,1.647,0,0,1-1.388,1.679c-2.491.433-4.19,2.342-4.19,5.957v4.515a1.748,1.748,0,0,1-1.767,1.733,1.725,1.725,0,0,1-1.74-1.733Z" transform="translate(-194.994 -26.148)" fill="#ffffff"/>
          <path id="Trazado_71" data-name="Trazado 71" d="M255.54,52.113a1.721,1.721,0,0,1,1.74-1.733,1.748,1.748,0,0,1,1.767,1.733V63.4l6.566-6.451a2.078,2.078,0,0,1,1.5-.751,1.538,1.538,0,0,1,1.537,1.591,1.975,1.975,0,0,1-.785,1.476l-4.048,3.73,4.63,6.045a1.852,1.852,0,0,1,.46,1.158,1.582,1.582,0,0,1-1.652,1.591,1.736,1.736,0,0,1-1.53-.778l-4.366-5.815-2.315,2.2v2.66a1.753,1.753,0,0,1-3.506,0V52.113Z" transform="translate(-200.697 -23.385)" fill="#ffffff"/>
          <path id="Trazado_72" data-name="Trazado 72" d="M286.289,74.694a7.618,7.618,0,0,1-7.839-7.927v-.054c0-4.366,3.094-7.954,7.46-7.954,4.86,0,7.256,3.994,7.256,7.52a1.637,1.637,0,0,1-1.645,1.679h-9.578a4.263,4.263,0,0,0,4.393,3.872,5.472,5.472,0,0,0,3.615-1.334,1.3,1.3,0,0,1,.893-.318,1.375,1.375,0,0,1,1.388,1.415,1.533,1.533,0,0,1-.46,1.07A7.784,7.784,0,0,1,286.289,74.694Zm3.466-9.05c-.23-2.254-1.564-4.021-3.872-4.021-2.139,0-3.642,1.652-3.96,4.021Z" transform="translate(-208.099 -26.093)" fill="#ffffff"/>
          <path id="Trazado_73" data-name="Trazado 73" d="M305.575,68.206V60.164h-.582a1.5,1.5,0,0,1,0-3.005h.582V54.553a1.75,1.75,0,0,1,3.5,0v2.606h2.748a1.5,1.5,0,1,1,0,3.005h-2.748v7.493a1.665,1.665,0,0,0,1.882,1.909,8.069,8.069,0,0,0,.866-.088,1.478,1.478,0,0,1,1.476,1.449,1.506,1.506,0,0,1-.927,1.361,7.038,7.038,0,0,1-2.4.406C307.4,72.687,305.575,71.563,305.575,68.206Z" transform="translate(-216.189 -24.173)" fill="#ffffff"/>
          <path id="Trazado_74" data-name="Trazado 74" d="M322.97,52.346a2.022,2.022,0,0,1,3.994,0v.176a2.017,2.017,0,0,1-3.994,0Zm.264,5.7a1.731,1.731,0,0,1,1.733-1.767,1.755,1.755,0,0,1,1.767,1.767V70.135a1.75,1.75,0,0,1-3.5,0Z" transform="translate(-222.483 -23.469)" fill="#ffffff"/>
          <path id="Trazado_75" data-name="Trazado 75" d="M335.28,60.669a1.731,1.731,0,0,1,1.733-1.767,1.755,1.755,0,0,1,1.767,1.767v.751a5.541,5.541,0,0,1,4.772-2.66c3.439,0,5.436,2.315,5.436,5.842v8.157a1.7,1.7,0,0,1-1.733,1.733,1.731,1.731,0,0,1-1.767-1.733V65.671c0-2.369-1.185-3.73-3.27-3.73-2.024,0-3.439,1.415-3.439,3.791v7.026a1.75,1.75,0,0,1-3.5,0Z" transform="translate(-226.46 -26.093)" fill="#ffffff"/>
          <path id="Trazado_76" data-name="Trazado 76" d="M362.292,77.669a1.434,1.434,0,0,1-.988-1.388,1.479,1.479,0,0,1,2.112-1.306,9.349,9.349,0,0,0,4.684,1.212c3.127,0,4.826-1.618,4.826-4.684V70.318a6.4,6.4,0,0,1-5.381,2.8,6.864,6.864,0,0,1-6.945-7.141v-.054a6.888,6.888,0,0,1,6.945-7.175,6.6,6.6,0,0,1,5.354,2.606v-.724a1.736,1.736,0,0,1,1.733-1.733,1.755,1.755,0,0,1,1.767,1.767V71.219c0,2.572-.663,4.481-1.936,5.754-1.388,1.388-3.527,2.051-6.282,2.051A13.02,13.02,0,0,1,362.292,77.669Zm10.675-11.71V65.9a4.263,4.263,0,0,0-4.481-4.2,4.127,4.127,0,0,0-4.339,4.2v.054a4.162,4.162,0,0,0,4.339,4.2A4.276,4.276,0,0,0,372.967,65.959Z" transform="translate(-234.641 -26.089)" fill="#ffffff"/>
          <path id="Trazado_77" data-name="Trazado 77" d="M175.217,109.623a1.66,1.66,0,0,1,.981-3.012,1.631,1.631,0,0,1,1.042.318,8.81,8.81,0,0,0,5.672,2.085c2.2,0,3.588-1.042,3.588-2.545v-.061c0-1.449-.812-2.227-4.569-3.093-4.312-1.042-6.742-2.315-6.742-6.045v-.061c0-3.472,2.89-5.869,6.911-5.869a11.135,11.135,0,0,1,6.424,1.882,1.6,1.6,0,0,1,.778,1.415,1.656,1.656,0,0,1-1.679,1.652,1.772,1.772,0,0,1-.927-.257,8.408,8.408,0,0,0-4.657-1.537c-2.085,0-3.3,1.069-3.3,2.4v.061c0,1.564.927,2.254,4.833,3.181,4.278,1.042,6.478,2.572,6.478,5.93v.061c0,3.791-2.978,6.045-7.229,6.045A12.677,12.677,0,0,1,175.217,109.623Z" transform="translate(-174.52 -36.619)" fill="#ffffff"/>
          <path id="Trazado_78" data-name="Trazado 78" d="M209.669,114.584a7.622,7.622,0,0,1-7.839-7.927V106.6c0-4.366,3.094-7.954,7.46-7.954,4.86,0,7.263,3.994,7.263,7.52a1.639,1.639,0,0,1-1.652,1.679H205.33a4.268,4.268,0,0,0,4.393,3.879,5.471,5.471,0,0,0,3.615-1.333,1.3,1.3,0,0,1,.9-.318,1.379,1.379,0,0,1,1.388,1.415,1.533,1.533,0,0,1-.46,1.07A7.851,7.851,0,0,1,209.669,114.584Zm3.466-9.05c-.23-2.254-1.564-4.021-3.872-4.021-2.139,0-3.649,1.652-3.967,4.021Z" transform="translate(-183.344 -38.981)" fill="#ffffff"/>
          <path id="Trazado_79" data-name="Trazado 79" d="M228.88,100.614a1.731,1.731,0,0,1,1.733-1.767,1.755,1.755,0,0,1,1.767,1.767v1.564c.812-1.909,2.315-3.357,3.845-3.357a1.722,1.722,0,0,1,.352,3.412c-2.484.433-4.2,2.342-4.2,5.957V112.7a1.748,1.748,0,0,1-1.767,1.733,1.719,1.719,0,0,1-1.733-1.733Z" transform="translate(-192.083 -39.036)" fill="#ffffff"/>
          <path id="Trazado_80" data-name="Trazado 80" d="M252.366,114.6h-.176a2.177,2.177,0,0,1-2-1.537l-5.09-11.656a2.668,2.668,0,0,1-.2-.866,1.77,1.77,0,0,1,3.466-.406l3.933,10.12,3.994-10.181a1.735,1.735,0,0,1,1.645-1.212,1.668,1.668,0,0,1,1.706,1.679,2.093,2.093,0,0,1-.2.839l-5.09,11.683A2.193,2.193,0,0,1,252.366,114.6Z" transform="translate(-197.259 -39.049)" fill="#ffffff"/>
          <path id="Trazado_81" data-name="Trazado 81" d="M271.48,92.236a2.022,2.022,0,0,1,3.994,0v.176a2.017,2.017,0,0,1-3.994,0Zm.264,5.7a1.732,1.732,0,0,1,1.74-1.767,1.755,1.755,0,0,1,1.767,1.767v12.089a1.753,1.753,0,0,1-3.506,0Z" transform="translate(-205.847 -36.357)" fill="#ffffff"/>
          <path id="Trazado_82" data-name="Trazado 82" d="M282.55,106.692v-.061A7.877,7.877,0,0,1,290.5,98.65a7.733,7.733,0,0,1,5.354,1.909,1.663,1.663,0,0,1,.548,1.212,1.6,1.6,0,0,1-1.618,1.591,1.817,1.817,0,0,1-1.042-.345,4.857,4.857,0,0,0-3.27-1.3,4.609,4.609,0,0,0-4.427,4.86v.054a4.62,4.62,0,0,0,4.569,4.887,5.084,5.084,0,0,0,3.412-1.361,1.477,1.477,0,0,1,2.457,1.158,1.383,1.383,0,0,1-.494,1.1,7.476,7.476,0,0,1-5.551,2.166A7.8,7.8,0,0,1,282.55,106.692Z" transform="translate(-209.424 -38.981)" fill="#ffffff"/>
          <path id="Trazado_83" data-name="Trazado 83" d="M314.149,114.584a7.618,7.618,0,0,1-7.839-7.927V106.6c0-4.366,3.094-7.954,7.459-7.954,4.86,0,7.257,3.994,7.257,7.52a1.639,1.639,0,0,1-1.652,1.679H309.8a4.27,4.27,0,0,0,4.4,3.879,5.485,5.485,0,0,0,3.615-1.333,1.3,1.3,0,0,1,.893-.318,1.379,1.379,0,0,1,1.388,1.415,1.51,1.51,0,0,1-.467,1.07A7.792,7.792,0,0,1,314.149,114.584Zm3.472-9.05c-.23-2.254-1.557-4.021-3.872-4.021-2.139,0-3.642,1.652-3.96,4.021Z" transform="translate(-217.1 -38.981)" fill="#ffffff"/>
          <path id="Trazado_84" data-name="Trazado 84" d="M332.183,112.732a1.333,1.333,0,0,1-.663-1.212,1.4,1.4,0,0,1,1.421-1.415,1.528,1.528,0,0,1,.751.2,8.071,8.071,0,0,0,4.393,1.476c1.5,0,2.369-.636,2.369-1.645v-.061c0-1.185-1.618-1.591-3.412-2.139-2.254-.636-4.772-1.564-4.772-4.481V103.4c0-2.89,2.4-4.657,5.436-4.657a10.447,10.447,0,0,1,4.8,1.245,1.489,1.489,0,0,1,.839,1.327,1.405,1.405,0,0,1-1.449,1.415,1.319,1.319,0,0,1-.7-.176,8.346,8.346,0,0,0-3.588-1.042c-1.361,0-2.139.636-2.139,1.5v.054c0,1.13,1.645,1.591,3.439,2.173,2.227.7,4.745,1.706,4.745,4.454v.054c0,3.209-2.484,4.806-5.672,4.806A10.359,10.359,0,0,1,332.183,112.732Z" transform="translate(-225.246 -39.01)" fill="#ffffff"/>
        </g>
      </g>
    </g>
  </g>
</svg>
