<svg width="115" height="331" viewBox="0 0 115 331" fill="none" xmlns="http://www.w3.org/2000/svg">
<path d="M74.0352 257.517C87.0234 257.517 97.0088 260.202 103.991 265.573C110.974 270.944 114.465 278.513 114.465 288.278C114.465 296.335 111.267 302.829 104.87 307.761L113 308.786L113 330.905L0.5 330.905L0.499999 306.223L40.124 306.223C34.8994 301.633 32.2871 295.7 32.2871 288.425C32.2871 278.562 35.8271 270.944 42.9072 265.573C49.9873 260.202 59.9482 257.517 72.79 257.517L74.0352 257.517ZM72.4971 282.272C64.8799 282.272 59.46 283.298 56.2373 285.349C52.9658 287.351 51.3301 290.451 51.3301 294.65C51.3301 300.217 53.4541 304.074 57.7021 306.223L89.1963 306.223C93.3955 304.123 95.4951 300.217 95.4951 294.504C95.4951 288.693 92.6631 285.007 86.999 283.444C84.2158 282.663 79.3818 282.272 72.4971 282.272ZM72.6436 249.68C64.7334 249.68 57.7021 248.142 51.5498 245.065C45.3486 241.989 40.5879 237.57 37.2676 231.809C33.9473 226.047 32.2871 219.284 32.2871 211.521C32.2871 199.655 35.9736 190.305 43.3467 183.469C50.6709 176.633 60.6562 173.215 73.3027 173.215L74.1816 173.215C86.5351 173.215 96.3496 176.657 103.625 183.542C110.852 190.378 114.465 199.655 114.465 211.374C114.465 222.653 111.096 231.711 104.357 238.547C97.5703 245.383 88.3906 249.069 76.8184 249.606L72.6436 249.68ZM74.1816 224.997C81.5059 224.997 86.8769 223.85 90.2949 221.555C93.7129 219.26 95.4219 215.866 95.4219 211.374C95.4219 202.585 88.6592 198.093 75.1338 197.897L72.6435 197.897C58.4346 197.897 51.3301 202.438 51.3301 211.521C51.3301 219.772 57.458 224.24 69.7139 224.924L74.1816 224.997ZM72.6435 165.451C64.7334 165.451 57.7021 163.913 51.5498 160.837C45.3486 157.761 40.5879 153.342 37.2676 147.58C33.9473 141.818 32.2871 135.056 32.2871 127.292C32.2871 115.427 35.9736 106.076 43.3467 99.2402C50.6709 92.4043 60.6562 88.9863 73.3027 88.9863L74.1816 88.9863C86.5351 88.9863 96.3496 92.4287 103.625 99.3135C110.852 106.149 114.465 115.427 114.465 127.146C114.465 138.425 111.096 147.482 104.357 154.318C97.5703 161.154 88.3906 164.841 76.8184 165.378L72.6435 165.451ZM74.1816 140.769C81.5059 140.769 86.8769 139.621 90.2949 137.326C93.7129 135.031 95.4219 131.638 95.4219 127.146C95.4219 118.356 88.6592 113.864 75.1338 113.669L72.6435 113.669C58.4346 113.669 51.3301 118.21 51.3301 127.292C51.3301 135.544 57.458 140.012 69.7139 140.695L74.1816 140.769ZM83.4834 46.2861L90.4414 53.2441L113 53.2441L113 77.9268L0.426746 77.9268L0.426745 53.2441L60.1924 53.2441L56.8965 50.7539L33.7519 32.1504L33.7519 2.56054L66.3447 30.3193L113 0.729486L113 29.001L83.4834 46.2861Z" fill="black"/>
</svg>
