<svg width="953" height="968" viewBox="0 0 953 968" fill="none" xmlns="http://www.w3.org/2000/svg">
<circle cx="263.5" cy="719.5" r="46" fill="url(#paint0_angular)" fill-opacity="0.25" stroke="black"/>
<circle cx="263.5" cy="719.5" r="43.5526" stroke="black"/>
<circle cx="489.5" cy="208.5" r="29" fill="url(#paint1_angular)" fill-opacity="0.25" stroke="black"/>
<circle cx="489.5" cy="208.5" r="27.4474" stroke="black"/>
<circle cx="439" cy="825" r="25.5" transform="rotate(-37.4389 439 825)" fill="url(#paint2_angular)" fill-opacity="0.25" stroke="black"/>
<circle cx="439" cy="825" r="24.1316" transform="rotate(-37.4389 439 825)" stroke="black"/>
<circle cx="164.023" cy="505.023" r="10.2162" transform="rotate(-37.4389 164.023 505.023)" fill="url(#paint3_angular)" fill-opacity="0.25" stroke="black"/>
<circle cx="164.024" cy="505.023" r="9.6522" transform="rotate(-37.4389 164.024 505.023)" stroke="black"/>
<circle cx="151.023" cy="288.023" r="10.2162" transform="rotate(-37.4389 151.023 288.023)" fill="url(#paint4_angular)" fill-opacity="0.25" stroke="black"/>
<circle cx="151.024" cy="288.023" r="9.6522" transform="rotate(-37.4389 151.024 288.023)" stroke="black"/>
<circle cx="755.023" cy="768.023" r="10.2162" transform="rotate(-37.4389 755.023 768.023)" fill="url(#paint5_angular)" fill-opacity="0.25" stroke="black"/>
<circle cx="755.024" cy="768.023" r="9.6522" transform="rotate(-37.4389 755.024 768.023)" stroke="black"/>
<circle cx="871.023" cy="833.023" r="10.2162" transform="rotate(-37.4389 871.023 833.023)" fill="url(#paint6_angular)" fill-opacity="0.25" stroke="black"/>
<circle cx="871.024" cy="833.023" r="9.6522" transform="rotate(-37.4389 871.024 833.023)" stroke="black"/>
<circle cx="80.4498" cy="841.516" r="25.5" transform="rotate(-37.4389 80.4498 841.516)" fill="url(#paint7_angular)" fill-opacity="0.25" stroke="black"/>
<circle cx="80.4499" cy="841.516" r="24.1316" transform="rotate(-37.4389 80.4499 841.516)" stroke="black"/>
<circle cx="56.4498" cy="394.45" r="25.5" transform="rotate(-37.4389 56.4498 394.45)" fill="url(#paint8_angular)" fill-opacity="0.25" stroke="black"/>
<circle cx="56.4499" cy="394.45" r="24.1316" transform="rotate(-37.4389 56.4499 394.45)" stroke="black"/>
<circle cx="496.687" cy="588.377" r="42.7737" transform="rotate(15.3826 496.687 588.377)" fill="url(#paint9_angular)" fill-opacity="0.25" stroke="black"/>
<circle cx="496.687" cy="588.377" r="40.4961" transform="rotate(15.3826 496.687 588.377)" stroke="black"/>
<circle cx="162.482" cy="247.072" r="68.4692" transform="rotate(15.3826 162.482 247.072)" fill="url(#paint10_angular)" fill-opacity="0.25" stroke="black"/>
<circle cx="162.482" cy="247.072" r="64.8393" transform="rotate(15.3826 162.482 247.072)" stroke="black"/>
<circle cx="74.5114" cy="641.062" r="59.9778" transform="rotate(15.3826 74.5114 641.062)" fill="url(#paint11_angular)" fill-opacity="0.25" stroke="black"/>
<circle cx="74.5119" cy="641.062" r="56.7948" transform="rotate(15.3826 74.5119 641.062)" stroke="black"/>
<circle cx="695.801" cy="490.217" r="56.6444" transform="rotate(-31.541 695.801 490.217)" fill="url(#paint12_angular)" fill-opacity="0.25" stroke="black"/>
<circle cx="695.801" cy="490.217" r="53.6368" transform="rotate(-31.541 695.801 490.217)" stroke="black"/>
<circle cx="300.459" cy="113.484" r="54.3825" transform="rotate(-31.541 300.459 113.484)" fill="url(#paint13_angular)" fill-opacity="0.25" stroke="black"/>
<circle cx="300.459" cy="113.484" r="51.4939" transform="rotate(-31.541 300.459 113.484)" stroke="black"/>
<circle cx="813.76" cy="99.7598" r="25.5" transform="rotate(-31.541 813.76 99.7598)" fill="url(#paint14_angular)" fill-opacity="0.25" stroke="black"/>
<circle cx="813.76" cy="99.7598" r="24.1316" transform="rotate(-31.541 813.76 99.7598)" stroke="black"/>
<circle cx="636.063" cy="628.551" r="72.4405" transform="rotate(112.226 636.063 628.551)" fill="url(#paint15_angular)" fill-opacity="0.25" stroke="black"/>
<circle cx="636.063" cy="628.551" r="68.6015" transform="rotate(112.226 636.063 628.551)" stroke="black"/>
<circle cx="312.021" cy="286.383" r="20.332" transform="rotate(112.226 312.021 286.383)" fill="url(#paint16_angular)" fill-opacity="0.25" stroke="black"/>
<circle cx="312.021" cy="286.383" r="19.2356" transform="rotate(112.226 312.021 286.383)" stroke="black"/>
<circle cx="848.881" cy="799.851" r="75.4646" transform="rotate(29.3832 848.881 799.851)" fill="url(#paint17_angular)" fill-opacity="0.25" stroke="black"/>
<circle cx="848.881" cy="799.851" r="71.4665" transform="rotate(29.3832 848.881 799.851)" stroke="black"/>
<circle cx="542.445" cy="75.3044" r="54.1103" transform="rotate(29.3832 542.445 75.3044)" fill="url(#paint18_angular)" fill-opacity="0.25" stroke="black"/>
<circle cx="542.445" cy="75.3044" r="51.2361" transform="rotate(29.3832 542.445 75.3044)" stroke="black"/>
<circle cx="732.717" cy="243.127" r="64.8467" transform="rotate(29.3832 732.717 243.127)" fill="url(#paint19_angular)" fill-opacity="0.25" stroke="black"/>
<circle cx="732.718" cy="243.127" r="61.4074" transform="rotate(29.3832 732.718 243.127)" stroke="black"/>
<circle cx="869.412" cy="443.412" r="25.5" transform="rotate(29.3832 869.412 443.412)" fill="url(#paint20_angular)" fill-opacity="0.25" stroke="black"/>
<circle cx="869.412" cy="443.412" r="24.1316" transform="rotate(29.3832 869.412 443.412)" stroke="black"/>
<circle cx="822.412" cy="648.412" r="25.5" transform="rotate(-37.0283 822.412 648.412)" fill="url(#paint21_angular)" fill-opacity="0.25" stroke="black"/>
<circle cx="822.412" cy="648.412" r="24.1316" transform="rotate(-37.0283 822.412 648.412)" stroke="black"/>
<circle cx="540.414" cy="364.414" r="25.5" transform="rotate(-37.0283 540.414 364.414)" fill="url(#paint22_angular)" fill-opacity="0.25" stroke="black"/>
<circle cx="540.414" cy="364.414" r="24.1316" transform="rotate(-37.0283 540.414 364.414)" stroke="black"/>
<circle cx="652.815" cy="917.815" r="25.5" transform="rotate(1.82635 652.815 917.815)" fill="url(#paint23_angular)" fill-opacity="0.25" stroke="black"/>
<circle cx="652.815" cy="917.815" r="24.1316" transform="rotate(1.82635 652.815 917.815)" stroke="black"/>
<circle cx="261.815" cy="940.815" r="25.5" transform="rotate(1.82635 261.815 940.815)" fill="url(#paint24_angular)" fill-opacity="0.25" stroke="black"/>
<circle cx="261.815" cy="940.815" r="24.1316" transform="rotate(1.82635 261.815 940.815)" stroke="black"/>
<circle cx="326.815" cy="469.815" r="25.5" transform="rotate(1.82635 326.815 469.815)" fill="url(#paint25_angular)" fill-opacity="0.25" stroke="black"/>
<circle cx="326.815" cy="469.815" r="24.1316" transform="rotate(1.82635 326.815 469.815)" stroke="black"/>
<circle cx="373.84" cy="451.542" r="87.5776" transform="rotate(1.82635 373.84 451.542)" fill="url(#paint26_angular)" fill-opacity="0.25" stroke="black"/>
<circle cx="373.84" cy="451.542" r="82.942" transform="rotate(1.82635 373.84 451.542)" stroke="black"/>
<defs>
<radialGradient id="paint0_angular" cx="0" cy="0" r="1" gradientUnits="userSpaceOnUse" gradientTransform="translate(263.5 719.5) rotate(90) scale(46.5)">
<stop stop-color="#0075FF" stop-opacity="0"/>
<stop offset="1" stop-color="#00050C" stop-opacity="0"/>
<stop offset="1" stop-opacity="0.1"/>
</radialGradient>
<radialGradient id="paint1_angular" cx="0" cy="0" r="1" gradientUnits="userSpaceOnUse" gradientTransform="translate(489.5 208.5) rotate(90) scale(29.5)">
<stop stop-color="#0075FF" stop-opacity="0"/>
<stop offset="1" stop-color="#00050C" stop-opacity="0"/>
<stop offset="1" stop-opacity="0.1"/>
</radialGradient>
<radialGradient id="paint2_angular" cx="0" cy="0" r="1" gradientUnits="userSpaceOnUse" gradientTransform="translate(439 825) rotate(90) scale(26)">
<stop stop-color="#0075FF" stop-opacity="0"/>
<stop offset="1" stop-color="#00050C" stop-opacity="0"/>
<stop offset="1" stop-opacity="0.1"/>
</radialGradient>
<radialGradient id="paint3_angular" cx="0" cy="0" r="1" gradientUnits="userSpaceOnUse" gradientTransform="translate(164.023 505.023) rotate(90) scale(10.7162)">
<stop stop-color="#0075FF" stop-opacity="0"/>
<stop offset="1" stop-color="#00050C" stop-opacity="0"/>
<stop offset="1" stop-opacity="0.1"/>
</radialGradient>
<radialGradient id="paint4_angular" cx="0" cy="0" r="1" gradientUnits="userSpaceOnUse" gradientTransform="translate(151.023 288.023) rotate(90) scale(10.7162)">
<stop stop-color="#0075FF" stop-opacity="0"/>
<stop offset="1" stop-color="#00050C" stop-opacity="0"/>
<stop offset="1" stop-opacity="0.1"/>
</radialGradient>
<radialGradient id="paint5_angular" cx="0" cy="0" r="1" gradientUnits="userSpaceOnUse" gradientTransform="translate(755.023 768.023) rotate(90) scale(10.7162)">
<stop stop-color="#0075FF" stop-opacity="0"/>
<stop offset="1" stop-color="#00050C" stop-opacity="0"/>
<stop offset="1" stop-opacity="0.1"/>
</radialGradient>
<radialGradient id="paint6_angular" cx="0" cy="0" r="1" gradientUnits="userSpaceOnUse" gradientTransform="translate(871.023 833.023) rotate(90) scale(10.7162)">
<stop stop-color="#0075FF" stop-opacity="0"/>
<stop offset="1" stop-color="#00050C" stop-opacity="0"/>
<stop offset="1" stop-opacity="0.1"/>
</radialGradient>
<radialGradient id="paint7_angular" cx="0" cy="0" r="1" gradientUnits="userSpaceOnUse" gradientTransform="translate(80.4498 841.516) rotate(90) scale(26)">
<stop stop-color="#0075FF" stop-opacity="0"/>
<stop offset="1" stop-color="#00050C" stop-opacity="0"/>
<stop offset="1" stop-opacity="0.1"/>
</radialGradient>
<radialGradient id="paint8_angular" cx="0" cy="0" r="1" gradientUnits="userSpaceOnUse" gradientTransform="translate(56.4498 394.45) rotate(90) scale(26)">
<stop stop-color="#0075FF" stop-opacity="0"/>
<stop offset="1" stop-color="#00050C" stop-opacity="0"/>
<stop offset="1" stop-opacity="0.1"/>
</radialGradient>
<radialGradient id="paint9_angular" cx="0" cy="0" r="1" gradientUnits="userSpaceOnUse" gradientTransform="translate(496.687 588.377) rotate(90) scale(43.2737)">
<stop stop-color="#0075FF" stop-opacity="0"/>
<stop offset="1" stop-color="#00050C" stop-opacity="0"/>
<stop offset="1" stop-opacity="0.1"/>
</radialGradient>
<radialGradient id="paint10_angular" cx="0" cy="0" r="1" gradientUnits="userSpaceOnUse" gradientTransform="translate(162.482 247.072) rotate(90) scale(68.9692)">
<stop stop-color="#0075FF" stop-opacity="0"/>
<stop offset="1" stop-color="#00050C" stop-opacity="0"/>
<stop offset="1" stop-opacity="0.1"/>
</radialGradient>
<radialGradient id="paint11_angular" cx="0" cy="0" r="1" gradientUnits="userSpaceOnUse" gradientTransform="translate(74.5114 641.062) rotate(90) scale(60.4778)">
<stop stop-color="#0075FF" stop-opacity="0"/>
<stop offset="1" stop-color="#00050C" stop-opacity="0"/>
<stop offset="1" stop-opacity="0.1"/>
</radialGradient>
<radialGradient id="paint12_angular" cx="0" cy="0" r="1" gradientUnits="userSpaceOnUse" gradientTransform="translate(695.801 490.217) rotate(90) scale(57.1444)">
<stop stop-color="#0075FF" stop-opacity="0"/>
<stop offset="1" stop-color="#00050C" stop-opacity="0"/>
<stop offset="1" stop-opacity="0.1"/>
</radialGradient>
<radialGradient id="paint13_angular" cx="0" cy="0" r="1" gradientUnits="userSpaceOnUse" gradientTransform="translate(300.459 113.484) rotate(90) scale(54.8825)">
<stop stop-color="#0075FF" stop-opacity="0"/>
<stop offset="1" stop-color="#00050C" stop-opacity="0"/>
<stop offset="1" stop-opacity="0.1"/>
</radialGradient>
<radialGradient id="paint14_angular" cx="0" cy="0" r="1" gradientUnits="userSpaceOnUse" gradientTransform="translate(813.76 99.7598) rotate(90) scale(26)">
<stop stop-color="#0075FF" stop-opacity="0"/>
<stop offset="1" stop-color="#00050C" stop-opacity="0"/>
<stop offset="1" stop-opacity="0.1"/>
</radialGradient>
<radialGradient id="paint15_angular" cx="0" cy="0" r="1" gradientUnits="userSpaceOnUse" gradientTransform="translate(636.063 628.551) rotate(90) scale(72.9405)">
<stop stop-color="#0075FF" stop-opacity="0"/>
<stop offset="1" stop-color="#00050C" stop-opacity="0"/>
<stop offset="1" stop-opacity="0.1"/>
</radialGradient>
<radialGradient id="paint16_angular" cx="0" cy="0" r="1" gradientUnits="userSpaceOnUse" gradientTransform="translate(312.021 286.383) rotate(90) scale(20.832)">
<stop stop-color="#0075FF" stop-opacity="0"/>
<stop offset="1" stop-color="#00050C" stop-opacity="0"/>
<stop offset="1" stop-opacity="0.1"/>
</radialGradient>
<radialGradient id="paint17_angular" cx="0" cy="0" r="1" gradientUnits="userSpaceOnUse" gradientTransform="translate(848.881 799.851) rotate(90) scale(75.9646)">
<stop stop-color="#0075FF" stop-opacity="0"/>
<stop offset="1" stop-color="#00050C" stop-opacity="0"/>
<stop offset="1" stop-opacity="0.1"/>
</radialGradient>
<radialGradient id="paint18_angular" cx="0" cy="0" r="1" gradientUnits="userSpaceOnUse" gradientTransform="translate(542.445 75.3044) rotate(90) scale(54.6103)">
<stop stop-color="#0075FF" stop-opacity="0"/>
<stop offset="1" stop-color="#00050C" stop-opacity="0"/>
<stop offset="1" stop-opacity="0.1"/>
</radialGradient>
<radialGradient id="paint19_angular" cx="0" cy="0" r="1" gradientUnits="userSpaceOnUse" gradientTransform="translate(732.717 243.127) rotate(90) scale(65.3467)">
<stop stop-color="#0075FF" stop-opacity="0"/>
<stop offset="1" stop-color="#00050C" stop-opacity="0"/>
<stop offset="1" stop-opacity="0.1"/>
</radialGradient>
<radialGradient id="paint20_angular" cx="0" cy="0" r="1" gradientUnits="userSpaceOnUse" gradientTransform="translate(869.412 443.412) rotate(90) scale(26)">
<stop stop-color="#0075FF" stop-opacity="0"/>
<stop offset="1" stop-color="#00050C" stop-opacity="0"/>
<stop offset="1" stop-opacity="0.1"/>
</radialGradient>
<radialGradient id="paint21_angular" cx="0" cy="0" r="1" gradientUnits="userSpaceOnUse" gradientTransform="translate(822.412 648.412) rotate(90) scale(26)">
<stop stop-color="#0075FF" stop-opacity="0"/>
<stop offset="1" stop-color="#00050C" stop-opacity="0"/>
<stop offset="1" stop-opacity="0.1"/>
</radialGradient>
<radialGradient id="paint22_angular" cx="0" cy="0" r="1" gradientUnits="userSpaceOnUse" gradientTransform="translate(540.414 364.414) rotate(90) scale(26)">
<stop stop-color="#0075FF" stop-opacity="0"/>
<stop offset="1" stop-color="#00050C" stop-opacity="0"/>
<stop offset="1" stop-opacity="0.1"/>
</radialGradient>
<radialGradient id="paint23_angular" cx="0" cy="0" r="1" gradientUnits="userSpaceOnUse" gradientTransform="translate(652.815 917.815) rotate(90) scale(26)">
<stop stop-color="#0075FF" stop-opacity="0"/>
<stop offset="1" stop-color="#00050C" stop-opacity="0"/>
<stop offset="1" stop-opacity="0.1"/>
</radialGradient>
<radialGradient id="paint24_angular" cx="0" cy="0" r="1" gradientUnits="userSpaceOnUse" gradientTransform="translate(261.815 940.815) rotate(90) scale(26)">
<stop stop-color="#0075FF" stop-opacity="0"/>
<stop offset="1" stop-color="#00050C" stop-opacity="0"/>
<stop offset="1" stop-opacity="0.1"/>
</radialGradient>
<radialGradient id="paint25_angular" cx="0" cy="0" r="1" gradientUnits="userSpaceOnUse" gradientTransform="translate(326.815 469.815) rotate(90) scale(26)">
<stop stop-color="#0075FF" stop-opacity="0"/>
<stop offset="1" stop-color="#00050C" stop-opacity="0"/>
<stop offset="1" stop-opacity="0.1"/>
</radialGradient>
<radialGradient id="paint26_angular" cx="0" cy="0" r="1" gradientUnits="userSpaceOnUse" gradientTransform="translate(373.84 451.542) rotate(90) scale(88.0776)">
<stop stop-color="#0075FF" stop-opacity="0"/>
<stop offset="1" stop-color="#00050C" stop-opacity="0"/>
<stop offset="1" stop-opacity="0.1"/>
</radialGradient>
</defs>
</svg>
