<svg id="Capa_1" data-name="Capa 1" xmlns="http://www.w3.org/2000/svg" viewBox="0 0 39.8 21"><title>isol</title><path d="M637.6,706.8V708a17.5,17.5,0,0,1-3.1,3.2,4.4,4.4,0,0,1-2.4,1.1,2.2,2.2,0,0,1-2.1-1.5,7.5,7.5,0,0,1-.7-3.2,5.7,5.7,0,0,1,.1-1.3,4.8,4.8,0,0,1,.3-1l.7-1.2q2.4-3.8,4.4-3.8t1,.8a4.1,4.1,0,0,1-.7,1.7,7.5,7.5,0,0,1-1.2,1.7l-1.9,2a2,2,0,0,0-.5,1.3,1.3,1.3,0,0,0,.5,1,1.7,1.7,0,0,0,1.2.4,3.5,3.5,0,0,0,1.8-.6Zm-1.2-7.6a1.2,1.2,0,0,1-.8-.3,1,1,0,0,1-.4-.8,2.8,2.8,0,0,1,.7-1.7,2,2,0,0,1,1.5-.9,1.2,1.2,0,0,1,.9.3,1.2,1.2,0,0,1,.3.9,2.7,2.7,0,0,1-.7,1.6A2,2,0,0,1,636.4,699.1Z" transform="translate(-629.3 -691.6)"/><path d="M637.4,707.3v-.4l6.1-6.5q.4-2.1,1.8-2.1l.8.2v.3a1.9,1.9,0,0,0-.1.6,5.4,5.4,0,0,0,.2,1.2l.4,1.5a6.1,6.1,0,0,1,.1,1.4,4.8,4.8,0,0,1-.5,2.2,7.3,7.3,0,0,1-1.5,2,16.1,16.1,0,0,1-2.5,1.9h1a3.8,3.8,0,0,0,1.5-.4l1.7-.9,2-1.5v1.1a25.4,25.4,0,0,1-3.9,3.2,5.8,5.8,0,0,1-3,1.1,4.1,4.1,0,0,1-3-1.4,3.7,3.7,0,0,1-1-1.6A8.4,8.4,0,0,1,637.4,707.3Zm6.4-2.6-.3-2.5-4.5,4.6a2.9,2.9,0,0,1,1.4.6l1.1,1.5a4.1,4.1,0,0,0,1.8-1.3,3.7,3.7,0,0,0,.6-2.3c0-.1,0-.2,0-.3Z" transform="translate(-629.3 -691.6)"/><path d="M659.4,706.7v1.1a9,9,0,0,1-1.8,1.4,4,4,0,0,1-2,.3q-2.2,2.6-3.9,2.6a2.7,2.7,0,0,1-1.7-.6,4.4,4.4,0,0,1-1.3-1.7,6.1,6.1,0,0,1-.5-2.4,5.2,5.2,0,0,1,.7-2.4,10.8,10.8,0,0,1,1.9-2.5,10.6,10.6,0,0,1,2.5-1.9,5.2,5.2,0,0,1,2.4-.7,2.7,2.7,0,0,1,1.3.2.8.8,0,0,1,.5.7,1.3,1.3,0,0,1-.4.8,1.5,1.5,0,0,1,.9.5,2,2,0,0,1,.2,1.2,7.3,7.3,0,0,1-.4,2.1,10.3,10.3,0,0,1-1.1,2.3l.3.3h.8l.5-.3Zm-3.5-4.5-2.4,1.5-1.7,1.4a3.8,3.8,0,0,0-.9,1.4q-.4,1.9-.4,2.1t1.6,1.1a5.4,5.4,0,0,0,2.5-1.3,4.5,4.5,0,0,1-.3-1.5,5.9,5.9,0,0,1,.4-2.2A18.1,18.1,0,0,1,655.8,702.2Z" transform="translate(-629.3 -691.6)"/><path d="M667.5,706.6v1.3q-3.6,4.7-5.8,4.7a2.1,2.1,0,0,1-1.9-1.3,7.5,7.5,0,0,1-.7-3.5,13.2,13.2,0,0,1,.8-4.1,29.8,29.8,0,0,1,2.2-4.9,30.7,30.7,0,0,1,2.9-4.3,10.7,10.7,0,0,1,2.7-2.6l.8-.3a.5.5,0,0,1,.5.3,3.4,3.4,0,0,1,.1,1.1,12.6,12.6,0,0,1-1.9,5.8,35.2,35.2,0,0,1-5.4,7.1,7.8,7.8,0,0,0-.2,1.4,3.1,3.1,0,0,0,.5,1.8,1.5,1.5,0,0,0,1.3.7,1.7,1.7,0,0,0,.9-.3l1-.8Zm-5.1-3.1a17,17,0,0,0,1.7-2,24.5,24.5,0,0,0,1.6-2.4,19.4,19.4,0,0,0,1.2-2.3,4.5,4.5,0,0,0,.4-1.5q0-.4-.3-.4l-.4.2a11.2,11.2,0,0,0-2.3,3.3A20,20,0,0,0,662.4,703.5Z" transform="translate(-629.3 -691.6)"/></svg>